<svg xmlns="http://www.w3.org/2000/svg" xml:space="preserve" width="800" height="800" fill="#0d6efd" viewBox="0 0 46.782 46.782"><path d="m46.697 21.39-1.262-2.22c-.204-.358-.71-.65-1.121-.65l-16.496.001c-.412 0-.98-.25-1.256-.555l-.985-1.08c-.278-.305-.844-.554-1.256-.554h-5.604l-.231-2.796c-.347-2.177-2.387-3.554-4.535-3.072l-9.977 2.247C1.826 13.194.07 15.381.07 17.582l-.003 8.921c0 2.194 1.758 4.386 3.903 4.873l9.979 2.245c2.148.482 4.188-.896 4.535-3.075l.23-2.792h3.61c.412 0 .978-.25 1.255-.557l.984-1.078c.277-.305.843-.555 1.255-.555h1.163c.412 0 .9-.302 1.084-.672l.154-.313c.185-.37.673-.673 1.084-.673h.705c.412 0 .836.326.94.726l.056.208c.105.398.514.725.904.725s.862-.302 1.047-.672l.155-.314c.185-.37.67-.672 1.083-.672h.705c.412 0 .835.326.939.726l.055.208c.104.398.527.727.939.727h7.478c.41 0 .917-.293 1.12-.652l1.263-2.219c.208-.362.208-.949.004-1.308zM6.95 28.084c-1.857 0-3.357-2.705-3.357-6.042 0-3.338 1.5-6.043 3.357-6.043 1.855 0 3.356 2.705 3.356 6.043 0 3.337-1.501 6.042-3.356 6.042z"/></svg>