<svg xmlns="http://www.w3.org/2000/svg" xml:space="preserve" width="800" height="800" fill="#dc3545" viewBox="0 0 46.782 46.782"><path d="m46.629 33.693-1.262-2.219c-.204-.358-.709-.651-1.121-.651l-16.496.002c-.412 0-.979-.25-1.256-.555l-.985-1.08c-.278-.305-.844-.554-1.256-.554h-5.604l-.231-2.796c-.347-2.177-2.387-3.554-4.535-3.072l-9.977 2.247c-2.148.483-3.904 2.669-3.903 4.871L0 38.807c0 2.194 1.758 4.386 3.903 4.873l9.979 2.245c2.148.482 4.188-.896 4.535-3.075l.231-2.792 3.609-.001c.412 0 .978-.25 1.255-.556l.984-1.078c.277-.305.843-.555 1.255-.555h1.163c.412 0 .9-.302 1.084-.672l.154-.313c.185-.37.673-.673 1.084-.673h.705c.412 0 .836.326.94.726l.056.208c.105.398.514.725.904.725s.862-.302 1.047-.672l.155-.314c.185-.37.671-.672 1.083-.672h.705c.412 0 .835.326.939.726l.055.208c.104.398.527.727.939.727h7.478c.411 0 .917-.293 1.12-.652l1.263-2.219c.208-.362.208-.949.004-1.308zM6.883 40.389c-1.857 0-3.357-2.705-3.357-6.042 0-3.338 1.5-6.043 3.357-6.043 1.855 0 3.356 2.705 3.356 6.043 0 3.337-1.501 6.042-3.356 6.042z" style="fill:#0d6efd"/><path d="m27.953 11.006 5.791-5.792L29.291.761 23.5 6.553 17.709.761l-4.453 4.453 5.792 5.792-5.792 5.788 4.453 4.454 5.791-5.79 5.791 5.79 4.453-4.454z"/></svg>