<?xml version="1.0" encoding="UTF-8" standalone="no"?>
<svg
   width="16"
   height="16"
   fill="#0d6efd"
   class="bi bi-pencil-square"
   version="1.1"
   id="svg2"
   sodipodi:docname="pencil.svg"
   inkscape:version="1.4.2 (2aeb623e1d, 2025-05-12)"
   xmlns:inkscape="http://www.inkscape.org/namespaces/inkscape"
   xmlns:sodipodi="http://sodipodi.sourceforge.net/DTD/sodipodi-0.dtd"
   xmlns="http://www.w3.org/2000/svg"
   xmlns:svg="http://www.w3.org/2000/svg">
  <defs
     id="defs2" />
  <sodipodi:namedview
     id="namedview2"
     pagecolor="#ffffff"
     bordercolor="#000000"
     borderopacity="0.25"
     inkscape:showpageshadow="2"
     inkscape:pageopacity="0.0"
     inkscape:pagecheckerboard="0"
     inkscape:deskcolor="#d1d1d1"
     inkscape:zoom="16.263456"
     inkscape:cx="12.666435"
     inkscape:cy="5.687598"
     inkscape:window-width="1214"
     inkscape:window-height="955"
     inkscape:window-x="66"
     inkscape:window-y="32"
     inkscape:window-maximized="1"
     inkscape:current-layer="svg2" />
  <path
     d="m 15.753211,1.6906644 a 0.53153714,0.5439663 0 0 1 0,0.7680806 l -1.108785,1.1358015 -2.12615,-2.1758652 1.108788,-1.13580148 a 0.53153714,0.5439663 0 0 1 0.751593,0 L 15.753211,1.6895766 Z M 13.892832,4.362627 11.766684,2.1867618 4.5239581,9.5999345 A 0.53153714,0.5439663 0 0 0 4.3953263,9.8131696 L 3.5395514,12.439439 a 0.26576858,0.27198315 0 0 0 0.3359314,0.343787 L 6.4417441,11.907441 A 0.53153714,0.5439663 0 0 0 6.6501066,11.776887 L 13.892832,4.363715 Z"
     id="path1"
     style="stroke-width:1.07543" />
  <path
     fill-rule="evenodd"
     d="M 0.13043478,14.332323 A 1.6976385,1.7042265 0 0 0 1.8280733,16.036549 H 14.277423 a 1.6976385,1.7042265 0 0 0 1.697638,-1.704226 V 7.5154163 a 0.56587951,0.5680755 0 0 0 -1.131759,0 v 6.8169067 a 0.56587951,0.5680755 0 0 1 -0.565879,0.568074 H 1.8280733 A 0.56587951,0.5680755 0 0 1 1.2621938,14.332323 V 1.8346613 A 0.56587951,0.5680755 0 0 1 1.8280733,1.2665858 H 9.184507 a 0.56587952,0.56807551 0 0 0 0,-1.13615102 H 1.8280733 A 1.6976385,1.7042265 0 0 0 0.13043478,1.8346613 Z"
     id="path2"
     style="stroke-width:1.13395" />
</svg>
