<svg xmlns="http://www.w3.org/2000/svg" width="16" height="16" fill="#0d6efd" class="bi bi-pencil-square"><path d="M15.753 1.69a.532.544 0 0 1 0 .769l-1.109 1.136-2.126-2.176 1.11-1.136a.532.544 0 0 1 .75 0l1.375 1.407Zm-1.86 2.673-2.126-2.176L4.524 9.6a.532.544 0 0 0-.129.213L3.54 12.44a.266.272 0 0 0 .335.344l2.567-.876a.532.544 0 0 0 .208-.13l7.243-7.413Z" style="stroke-width:1.07543"/><path fill-rule="evenodd" d="M.13 14.332a1.698 1.704 0 0 0 1.698 1.705h12.45a1.698 1.704 0 0 0 1.697-1.705V7.515a.566.568 0 0 0-1.132 0v6.817a.566.568 0 0 1-.566.568H1.828a.566.568 0 0 1-.566-.568V1.835a.566.568 0 0 1 .566-.568h7.357a.566.568 0 0 0 0-1.137H1.828A1.698 1.704 0 0 0 .13 1.835Z" style="stroke-width:1.13395"/></svg>